#!OML:ASF H:\Pregnant\Project 1\Capture day 1\Session 1\femalepreg.ASF
:FULLY-SPECIFIED
:DEGREES
715
root 9.8026 7.81075 26.8329 -105.295 -7.05219 181.346
lowerback 8.15717 -1.99642 -0.0158933
upperback -0.0416005 -2.72809 9.37179
thorax -4.17266 -1.45864 10.3737
lowerneck -31.598 3.06232 -0.69834
upperneck 35.2242 8.45563 -4.17653
head 18.9559 2.75093 0.312212
rclavicle 2.38542e-015 9.54166e-015
rhumerus 44.8108 12.0932 -64.0132
rradius 27.1091
rwrist 3.28762
rhand -65.6189 305.072
rfingers 7.12502
rthumb -37.4829 279.134
lclavicle 2.38542e-015 9.54166e-015
lhumerus 47.9734 -2.27577 63.7512
lradius 27.6968
lwrist 26.6366
lhand -51.2483 -446.362
lfingers 7.12502
lthumb -23.7867 -57.8149
rfemur -78.9682 -0.808954 4.74606
rtibia 101.485
rfoot 25.7964 32.6274
rtoes 34.7539
lfemur -72.2084 -9.41614 -15.5562
ltibia 101.019
lfoot -366.152 -22.5207
ltoes 17.906
716
root 9.79956 7.81025 26.8272 -105.251 -7.16949 181.375
lowerback 8.11869 -2.00357 0.186323
upperback -0.0404431 -2.71963 9.31588
thorax -4.16271 -1.45828 10.1856
lowerneck -31.5844 3.06214 -0.542654
upperneck 35.2755 8.38397 -4.18025
head 18.988 2.74463 0.266745
rclavicle -3.10104e-014 8.52786e-014
rhumerus 44.6831 11.9305 -64.2767
rradius 27.1135
rwrist 3.41988
rhand -65.6304 305.114
rfingers 7.12502
rthumb -37.4937 279.178
lclavicle -3.10104e-014 8.52786e-014
lhumerus 47.9938 -2.35154 63.7725
lradius 27.7382
lwrist 26.486
lhand -51.2305 -446.433
lfingers 7.12502
lthumb -23.7697 -57.8828
rfemur -78.9832 -0.743572 4.86405
rtibia 101.412
rfoot 25.943 32.516
rtoes 34.8186
lfemur -72.2413 -9.39666 -15.4765
ltibia 101.025
lfoot -366.236 -22.4289
ltoes 17.8086
717
root 9.79651 7.81014 26.8215 -105.214 -7.28644 181.418
lowerback 8.09275 -1.9948 0.351006
upperback -0.0447881 -2.69534 9.29573
thorax -4.16496 -1.45017 10.0607
lowerneck -31.564 3.04601 -0.436068
upperneck 35.3215 8.31582 -4.18635
head 19.0133 2.7331 0.229126
rclavicle -1.51076e-014 -4.09496e-014
rhumerus 44.5992 11.8206 -64.3758
rradius 27.1197
rwrist 3.4339
rhand -65.6416 305.308
rfingers 7.12502
rthumb -37.5044 279.375
lclavicle -1.51076e-014 -4.09496e-014
lhumerus 48.009 -2.40638 63.865
lradius 27.7648
lwrist 26.3234
lhand -51.2213 -446.504
lfingers 7.12502
lthumb -23.7608 -57.9526
rfemur -79.0091 -0.647098 4.98344
rtibia 101.34
rfoot 26.1227 32.375
rtoes 34.8711
lfemur -72.2633 -9.36141 -15.398
ltibia 101.033
lfoot -366.336 -22.3282
ltoes 17.6893
718
root 9.7935 7.81047 26.8155 -105.191 -7.39808 181.474
lowerback 8.08773 -1.97239 0.468633
upperback -0.0564968 -2.65843 9.31558
thorax -4.1849 -1.43557 10.0101
lowerneck -31.5231 3.01305 -0.389423
upperneck 35.3632 8.2578 -4.19588
head 19.029 2.7177 0.202209
rclavicle 1.74931e-014 -1.21259e-014
rhumerus 44.5056 11.7493 -64.3981
rradius 27.1318
rwrist 3.43728
rhand -65.6267 304.406
rfingers 7.12502
rthumb -37.4902 278.47
lclavicle 1.74931e-014 -1.21259e-014
lhumerus 48.0044 -2.43463 64.027
lradius 27.7781
lwrist 26.1543
lhand -51.2143 -446.581
lfingers 7.12502
lthumb -23.7542 -58.0288
rfemur -79.0411 -0.515688 5.09923
rtibia 101.27
rfoot 26.3474 32.1905
rtoes 34.9372
lfemur -72.2616 -9.31173 -15.3254
ltibia 101.037
lfoot -366.443 -22.2238
ltoes 17.5613
719
root 9.79047 7.81114 26.8095 -105.18 -7.50573 181.54
lowerback 8.10287 -1.95288 0.584231
upperback -0.0710565 -2.62406 9.33631
thorax -4.21857 -1.42174 9.96359
lowerneck -31.4815 2.98091 -0.36176
upperneck 35.4083 8.20338 -4.18573
head 19.0437 2.70402 0.18872
rclavicle 3.4191e-014 -8.07066e-014
rhumerus 44.3854 11.6962 -64.4415
rradius 27.1708
rwrist 3.46126
rhand -65.5544 301.649
rfingers 7.12502
rthumb -37.422 275.695
lclavicle 3.4191e-014 -8.07066e-014
lhumerus 47.9893 -2.45719 64.142
lradius 27.7945
lwrist 26.0292
lhand -51.2099 -446.639
lfingers 7.12502
lthumb -23.7499 -58.0864
rfemur -79.0874 -0.354404 5.21094
rtibia 101.204
rfoot 26.6273 31.9543
rtoes 35.0071
lfemur -72.2438 -9.25102 -15.2579
ltibia 101.037
lfoot -366.555 -22.1155
ltoes 17.4412
720
root 9.78768 7.81228 26.8029 -105.191 -7.60706 181.62
lowerback 8.14754 -1.92924 0.683768
upperback -0.0847226 -2.58469 9.36453
thorax -4.26767 -1.40503 9.93677
lowerneck -31.4401 2.94292 -0.359907
upperneck 35.4626 8.14989 -4.15977
head 19.0613 2.68946 0.187432
rclavicle -8.74653e-015 -3.29983e-014
rhumerus 44.2536 11.6598 -64.4819
rradius 27.2117
rwrist 3.49479
rhand -65.441 298.461
rfingers 7.12502
rthumb -37.3147 272.478
lclavicle -8.74653e-015 -3.29983e-014
lhumerus 47.9649 -2.47348 64.2407
lradius 27.8104
lwrist 25.9316
lhand -51.2069 -446.676
lfingers 7.12502
lthumb -23.747 -58.1235
rfemur -79.1335 -0.149807 5.31712
rtibia 101.138
rfoot 26.9544 31.6653
rtoes 35.0061
lfemur -72.1877 -9.1743 -15.1954
ltibia 101.029
lfoot -366.669 -22.0104
ltoes 17.3478
721
root 9.78533 7.81389 26.7953 -105.232 -7.69761 181.72
lowerback 8.22669 -1.89765 0.761536
upperback -0.0941559 -2.53572 9.39809
thorax -4.33211 -1.38312 9.93016
lowerneck -31.4051 2.89798 -0.382914
upperneck 35.5295 8.09504 -4.11633
head 19.0852 2.67326 0.19856
rclavicle -3.18055e-014 7.5737e-014
rhumerus 44.1171 11.6429 -64.497
rradius 27.2642
rwrist 3.50631
rhand -65.3415 296.137
rfingers 7.12502
rthumb -37.2206 270.13
lclavicle -3.18055e-014 7.5737e-014
lhumerus 47.933 -2.4833 64.3467
lradius 27.8218
lwrist 25.8374
lhand -51.2035 -446.703
lfingers 7.12502
lthumb -23.7438 -58.1498
rfemur -79.1744 0.107253 5.41256
rtibia 101.072
rfoot 27.3457 31.3265
rtoes 34.9791
lfemur -72.0801 -9.0767 -15.1416
ltibia 101.008
lfoot -366.791 -21.9112
ltoes 17.2707
722
root 9.78327 7.81568 26.7876 -105.282 -7.77704 181.83
lowerback 8.31558 -1.8567 0.818723
upperback -0.105472 -2.47587 9.43614
thorax -4.40477 -1.35538 9.94044
lowerneck -31.3732 2.84216 -0.424135
upperneck 35.6077 8.03277 -4.06386
head 19.1147 2.65299 0.21545
rclavicle -6.20208e-014 4.41302e-014
rhumerus 44.0025 11.6404 -64.4632
rradius 27.2871
rwrist 3.48544
rhand -65.2975 295.157
rfingers 7.12502
rthumb -37.179 90.8612
lclavicle -6.20208e-014 4.41302e-014
lhumerus 47.8971 -2.4906 64.4916
lradius 27.8241
lwrist 25.7223
lhand -51.1962 -446.727
lfingers 7.12502
lthumb -23.7368 -58.1729
rfemur -79.2413 0.398948 5.49026
rtibia 101.013
rfoot 27.8145 30.9533
rtoes 34.9003
lfemur -71.9561 -8.96521 -15.096
ltibia 100.981
lfoot -366.917 -21.8126
ltoes 17.1983
723
root 9.78171 7.81762 26.7795 -105.341 -7.84237 181.952
lowerback 8.41446 -1.80753 0.863537
upperback -0.112966 -2.40549 9.46425
thorax -4.48066 -1.32193 9.94596
lowerneck -31.3541 2.7823 -0.457406
upperneck 35.696 7.95996 -4.00705
head 19.1532 2.62997 0.230785
rclavicle -7.95139e-016 8.74653e-015
rhumerus 43.9526 11.6656 -64.3289
rradius 27.2794
rwrist 3.33753
rhand -65.3019 295.612
rfingers 7.12502
rthumb -37.1832 90.4051
lclavicle -7.95139e-016 8.74653e-015
lhumerus 47.8714 -2.50646 64.6398
lradius 27.8175
lwrist 25.598
lhand -51.1837 -446.748
lfingers 7.12502
lthumb -23.7248 -58.1927
rfemur -79.3334 0.728331 5.54682
rtibia 100.966
rfoot 28.3871 30.5446
rtoes 34.7925
lfemur -71.8099 -8.83744 -15.0596
ltibia 100.945
lfoot -367.062 -21.7168
ltoes 17.0841
